inDegrees=no
num_controls=7
num_derivatives=13
num_iterations=129
num_multipliers=7
num_parameters=0
num_slacks=7
num_states=26
objective=5.442443
objective_accelerations=0.537508
objective_balance=0.099175
objective_effort=0.412673
objective_height=4.310944
objective_ligament=0.082143
solver_duration=1535.120985
status=Solve_Succeeded
success=true
DataType=double
version=3
OpenSimVersion=4.4-2022-07-23-0e9fedc
endheader
time	/jointset/ground_pelvis/pelvis_tilt/value	/jointset/ground_pelvis/pelvis_tx/value	/jointset/ground_pelvis/pelvis_ty/value	/jointset/hip_l/hip_flexion_l/value	/jointset/hip_l/hip_adduction_l/value	/jointset/hip_l/hip_rotation_l/value	/jointset/back/lumbar_extension/value	/jointset/patellofemoral_l/patellar_flexion_l/value	/jointset/knee_l/knee_flexion_l/value	/jointset/knee_l/knee_adduction_l/value	/jointset/knee_l/knee_rotation_l/value	/jointset/ankle_l/ankle_angle_l/value	/jointset/subtalar_l/subtalar_angle_l/value	/jointset/ground_pelvis/pelvis_tilt/speed	/jointset/ground_pelvis/pelvis_tx/speed	/jointset/ground_pelvis/pelvis_ty/speed	/jointset/hip_l/hip_flexion_l/speed	/jointset/hip_l/hip_adduction_l/speed	/jointset/hip_l/hip_rotation_l/speed	/jointset/back/lumbar_extension/speed	/jointset/patellofemoral_l/patellar_flexion_l/speed	/jointset/knee_l/knee_flexion_l/speed	/jointset/knee_l/knee_adduction_l/speed	/jointset/knee_l/knee_rotation_l/speed	/jointset/ankle_l/ankle_angle_l/speed	/jointset/subtalar_l/subtalar_angle_l/speed	/forceset/tau_hip_flexion_l	/forceset/tau_hip_adduction_l	/forceset/tau_hip_rotation_l	/forceset/tau_knee_flexion_l	/forceset/tau_ankle_angle_l	/forceset/tau_subtalar_angle_l	/forceset/tau_lumbar_extension	lambda_cid13_p0	lambda_cid13_p1	lambda_cid13_p2	lambda_cid13_p3	lambda_cid13_p4	lambda_cid13_p5	lambda_cid14_p0	/jointset/ground_pelvis/pelvis_tilt/accel	/jointset/ground_pelvis/pelvis_tx/accel	/jointset/ground_pelvis/pelvis_ty/accel	/jointset/hip_l/hip_flexion_l/accel	/jointset/hip_l/hip_adduction_l/accel	/jointset/hip_l/hip_rotation_l/accel	/jointset/back/lumbar_extension/accel	/jointset/patellofemoral_l/patellar_flexion_l/accel	/jointset/knee_l/knee_flexion_l/accel	/jointset/knee_l/knee_adduction_l/accel	/jointset/knee_l/knee_rotation_l/accel	/jointset/ankle_l/ankle_angle_l/accel	/jointset/subtalar_l/subtalar_angle_l/accel	gamma_cid13_p0	gamma_cid13_p1	gamma_cid13_p2	gamma_cid13_p3	gamma_cid13_p4	gamma_cid13_p5	gamma_cid14_p0
1	-0.6387205041631231	-0.1113155688195429	0.6298484475800744	1.838241752281586	-0.3002836287251518	0.108306384865903	-0.4363301767171859	1.119915505659623	1.119915505659674	-0.1745243131089188	0.17453043429344	0.1125882696582685	-0.02881301476207485	-0.01046390628295977	0.0006754215311729236	-0.003153419489416844	0.01636789722074487	0.0006019116229274802	0.00321393639515374	3.77355830665613e-05	0.008556149885341232	0.008556149885340885	2.737763709363549e-06	-2.519362159328414e-06	0.003293694796584966	0.0012441608695684	-0.4286059523408194	0.01840825372910412	-0.01893066506691065	-0.230013786147066	0.09763259362329788	0.03661773745279571	0.3468257024739977	-13.99723436521768	-13.81661522924091	2.216498341056724	9.427941786904478	-719.3699052081713	-44.95529433299591	-3.046099744936923	1.918450308086558	0.2611829885517765	1.520039591029223	-5.922838702549183	-0.2894777964892038	-1.600013690480736	-0.02205015626443373	-4.40674108561856	-4.40674108561856	-0.03660838420544867	0.01306267664366602	-0.6752128800839665	-0.404686288992214	6.148356013597412e-10	2.849925562151964e-09	-4.921343843204545e-09	9.648104618609269e-11	8.824121382298063e-10	-8.042991041322845e-10	1.092104428899142e-09
1.01	-0.6387298593242231	-0.1112958011678096	0.6298928135395295	1.838110153634976	-0.3002912911660383	0.1082579075368826	-0.436330098120508	1.119780967842866	1.119780967842888	-0.1745243127553708	0.1745304347950602	0.112587653917765	-0.0288198904873394	0.008597601671700273	0.003279847972055664	0.0120260661188885	-0.04269195409299636	-0.002132558673192092	-0.01290839678032977	-1.874260746009796e-05	-0.0354633661961968	-0.03546336619619744	-2.410361250429584e-06	2.096550350433277e-06	-0.003416784296112015	-0.002617157182363351	-0.4286252820676748	0.01846199198391709	-0.01893238087159699	-0.2299207118237075	0.0975664728360387	0.03664543578597805	0.3468604936597855	-14.01391657775346	-13.82728239219142	2.219979407229875	9.406957749976181	-719.3295045831718	-44.9690062984856	-3.051252267075654	1.90070988988642	0.2603337971082171	1.516820326689667	-5.898207877404802	-0.2651570208966863	-1.618195617798781	0.003044391583570974	-4.399504065630029	-4.399504065630065	0.01756899379539308	-0.005921330981918133	-0.668956586516674	-0.3765331867104506	-2.875897688452156e-09	-6.125900767580444e-09	1.618649608019621e-08	2.2372950632129e-09	-4.593703600956489e-09	1.126603498468979e-08	-3.690353973015208e-09
1.02	-0.6385484576356272	-0.1112499369866172	0.6300889578112594	1.837387826568915	-0.3003262433848298	0.1080482363787631	-0.4363304860971404	1.119206245426053	1.119206245426035	-0.1745243564789778	0.1745304649799167	0.1125199351538038	-0.02886531511780664	0.02768746365558672	0.005894727423007163	0.02720224296555081	-0.1017777866714641	-0.004856043958245655	-0.02902482942447801	-5.557911677761396e-05	-0.07948077012607807	-0.07948077012607832	-6.077668744813689e-06	3.41728139920461e-06	-0.01012690989497343	-0.006465620170967361	-0.4286446117944849	0.0185157302387317	-0.01893409667630576	-0.2298276375003533	0.0975003520487713	0.03667313411916061	0.3468952848456246	-14.03766620388277	-13.83688719797718	2.223491095435107	9.40855467570119	-719.3825202004862	-44.95655551207273	-3.073269992045441	1.924121113931849	0.2632735905655217	1.519377838700616	-5.928034955494486	-0.2872807942760087	-1.598833584213668	-0.01812182002301076	-4.406318655287208	-4.406318655287071	-0.03631222071239098	0.01240364035146753	-0.6751421813168665	-0.4021152763266765	-5.890883907115104e-09	-1.516904323916785e-08	3.736586678707596e-08	3.179402409772182e-09	-9.31109033846908e-09	2.327759447629323e-08	-8.55524827411569e-09
1.03	-0.6381760803987274	-0.1111778629357097	0.6304367653316344	1.836074740226345	-0.3003883338141903	0.107677501873313	-0.4363310736878932	1.118191489947916	1.118191489947949	-0.1745244420042499	0.174530488332025	0.1123850877848682	-0.02894911833737575	0.04678606405788087	0.008522686529881677	0.04235052013582215	-0.1608207051102697	-0.00755532310292482	-0.04511524369146316	-5.137840069381117e-05	-0.123456738711716	-0.1234567387117165	-9.758803354182917e-06	2.224305542154334e-07	-0.01684512535805677	-0.01028786933107569	-0.4282812293975984	0.01859771981563657	-0.01894936353058788	-0.2296531709090566	0.09750679171946686	0.03676131702657883	0.3466896326090139	-14.01374911683975	-13.88549170679542	2.238229317270207	9.356426352351935	-719.0742450052213	-45.01100578844973	-3.112383700338157	1.902440395392544	0.2629484639270054	1.511238677446335	-5.889605256856937	-0.2602496211834516	-1.613132871399878	0.01127511483558762	-4.391195228050529	-4.391195228050676	0.01778900302480348	-0.006849598696156208	-0.6705450875446106	-0.3712096602304433	-8.90101556382755e-09	-2.421287261016195e-08	5.854596739990959e-08	4.1092780556124e-09	-1.402073494331153e-08	3.528855422710872e-08	-1.342098375786093e-08
1.04	-0.6376127749793993	-0.1110794310150978	0.6309357928279632	1.834171787705628	-0.3004772166643218	0.1071460657205031	-0.436331302452115	1.116737382930352	1.116737382930441	-0.1745245273282878	0.1745304460254529	0.1121829814895538	-0.02907093003342146	0.06587310014074413	0.01116630136389664	0.05744623815634192	-0.2197510223004113	-0.01021452811238804	-0.06116515889680595	1.618621185189283e-05	-0.1673510780112903	-0.1673510780112917	-6.037423562520056e-06	-9.714456036920688e-06	-0.02357869517076135	-0.01406731546628534	-0.4279178470007306	0.01867970939254174	-0.01896463038488145	-0.2294787043177539	0.09751323139016736	0.0368494999339984	0.3464839803723813	-13.99688623259994	-13.93306616969895	2.253037576832939	9.326540461914078	-718.8592902472726	-45.03975124208794	-3.168891578063857	1.921808250045688	0.2664047359936035	1.508866008750299	-5.905514705761709	-0.279265967232834	-1.590733771885216	-0.005449040730357078	-4.389992798074462	-4.389992798074462	-0.03483171783219131	0.011055233202268	-0.6782130512411305	-0.3935546713469601	-1.109208464160026e-08	-3.253383954006308e-08	7.882516781167593e-08	3.47539610908632e-09	-1.758115100564181e-08	4.641331208530502e-08	-1.808152431950677e-08
1.05	-0.6368587468461838	-0.1109545124239116	0.63158538358463	1.831680494234996	-0.300592478153656	0.1064544338725736	-0.4363309094451228	1.114844973890218	1.114844973890262	-0.1745245968395196	0.1745303133107692	0.1119133843397451	-0.02923032412893763	0.08492027945440193	0.01381707025061617	0.07244988439864899	-0.2784471240405079	-0.01282691049833264	-0.07714593791597231	3.74175868794541e-05	-0.2110931136279503	-0.2110931136279514	-6.459437477547303e-06	-1.644553169640482e-05	-0.03035016886988959	-0.01780120189269296	-0.4265475457870286	0.01870683778079628	-0.01900869933647764	-0.2294639335165208	0.09795206316197759	0.03691738408095884	0.3455155958904855	-13.79721327636554	-14.00777732359836	2.276676862565317	9.197526112526591	-717.8972403572524	-45.13251921012414	-3.243302630414671	1.894333646835558	0.2643615231984836	1.492805358470245	-5.842578278243731	-0.2506058201605753	-1.599478617220332	0.002159592513881351	-4.360661891165327	-4.360661891165258	0.01755480680568359	-0.006503298607049065	-0.6780287322101919	-0.361765655814951	-1.325755801378112e-08	-4.083221701868005e-08	9.907621509215892e-08	2.7926467377988e-09	-2.110565367601859e-08	5.751037613435698e-08	-2.273565253983701e-08
1.06	-0.6359146147448697	-0.1108030964322206	0.6323843490890196	1.828604055672944	-0.3007335397560266	0.1056034485043976	-0.4363310540516226	1.112516273904377	1.112516273904372	-0.1745246301208875	0.1745301200811857	0.111575789612353	-0.02942674909422334	0.1038938937604481	0.01646578146483971	0.08732118770092655	-0.3367800405850082	-0.0153745507196901	-0.09303586294665822	-9.133640231497302e-05	-0.2546092671527533	-0.2546092671527537	1.208547682157826e-06	-2.1817433635775e-05	-0.03717821068747911	-0.0214734894201919	-0.4251772445733081	0.01873396616905719	-0.01905276828809313	-0.2294491627152891	0.09839089493378583	0.0369852682279261	0.3445472114086111	-13.60448078196182	-14.08158485358182	2.300527991253506	9.09016559299509	-717.0268231270342	-45.20092199894392	-3.336176032981293	1.907095248523383	0.2659932014943939	1.482397420744386	-5.832877666642418	-0.2663175343154099	-1.572562974189144	-0.03544611357492134	-4.344816379703063	-4.344816379702992	-0.03321371801723517	0.01132706794631085	-0.6895266749334072	-0.381234891565237	-1.729108177905513e-08	-4.948543799950029e-08	1.163696331901413e-07	6.568441870172787e-09	-2.667380762303876e-08	6.700452163294154e-08	-2.678175214999137e-08
1.07	-0.6347812006039331	-0.1106250836188152	0.6333313748918846	1.824946043947013	-0.3008997366237576	0.104594073860187	-0.4363322318094638	1.109753530520451	1.109753530520422	-0.1745246138858317	0.1745298893717601	0.1111697711046809	-0.02965953802314542	0.1227665997996521	0.01914831732717873	0.1020628686035497	-0.3947667532089375	-0.01785087785554454	-0.1088221885756322	-6.723486943705511e-05	-0.2979033642651171	-0.2979033642651177	1.945071925234371e-06	-2.321262185668837e-05	-0.04402084888121525	-0.02506736104331272	-0.4245244214889626	0.0189130974361322	-0.01909180307404692	-0.2290730033101933	0.0986228896787643	0.03717315554328356	0.3443010374769537	-13.49207208787554	-14.19841155694209	2.336909836508985	8.856773915608894	-716.5497810806472	-45.30715148257607	-3.44588054547974	1.874005436959242	0.271116368226605	1.46688123431962	-5.773238748437366	-0.2362120006089889	-1.579162731490992	0.03288531778314627	-4.316293356041479	-4.316293356041532	0.01669124111080044	-0.005737745750589962	-0.6809355366421888	-0.3459295155540702	-2.14239699269405e-08	-5.815753363469303e-08	1.335057305869268e-07	1.058139362508199e-08	-3.235066642519955e-08	7.641340550650123e-08	-3.079550981279595e-08
